#N canvas 457 446 450 300 10;
#X declare -lib mrpeach;
#X obj 34 16 import mrpeach;
#X obj 33 112 print;
#X obj 33 90 unpackOSC;
#X obj 74 193 osc~;
#X obj 118 251 *~ 0.1;
#X obj 117 274 dac~;
#X obj 238 188 hsl 128 15 0 1 0 0 empty empty empty -2 -8 0 10 -262144
-1 -1 10700 1;
#X obj 51 142 routeOSC /x;
#X obj 118 224 *~;
#X obj 160 171 osc~;
#X obj 144 140 routeOSC /y;
#X obj 33 68 udpreceive 5001;
#X connect 2 0 1 0;
#X connect 2 0 7 0;
#X connect 2 0 10 0;
#X connect 3 0 8 0;
#X connect 4 0 5 0;
#X connect 4 0 5 1;
#X connect 6 0 4 1;
#X connect 7 0 3 0;
#X connect 8 0 4 0;
#X connect 9 0 8 1;
#X connect 10 0 9 0;
#X connect 11 0 2 0;
