#N canvas 279 107 703 341 10;
#X obj -322 257 soundfiler;
#X obj -244 138 openpanel;
#X obj -249 114 bng 15 250 50 0 empty empty empty 17 7 0 10 -262144
-1 -1;
#N canvas 0 50 450 250 (subpatch) 0;
#X array left 27591 float 0;
#X coords 0 1 27590 -1 200 140 1 0 0;
#X restore -442 285 graph;
#N canvas 0 50 450 250 (subpatch) 0;
#X array right 27591 float 0;
#X coords 0 1 27590 -1 200 140 1 0 0;
#X restore -234 285 graph;
#X floatatom -388 244 0 0 0 0 - - -;
#X obj 45 231 tabread4~ left;
#X obj 142 230 tabread4~ right;
#X msg -273 188 read -resize -raw 128 2 2 b \$1 left right;
#X obj 99 138 phasor~;
#X obj 49 164 *~;
#X floatatom 102 108 5 0 0 0 - - -;
#X floatatom 144 110 5 0 0 0 - - -;
#X obj 45 287 clip~ -1 1;
#X obj 144 286 clip~ -1 1;
#X obj 193 169 phasor~;
#X obj 158 172 *~;
#X floatatom 104 130 5 0 0 0 - - -;
#X floatatom 148 132 5 0 0 0 - - -;
#X obj 88 329 outlet~;
#X obj 151 329 outlet~;
#X obj 253 -3 inlet;
#X connect 0 0 5 0;
#X connect 1 0 8 0;
#X connect 2 0 1 0;
#X connect 5 0 12 0;
#X connect 5 0 18 0;
#X connect 6 0 13 0;
#X connect 7 0 14 0;
#X connect 8 0 0 0;
#X connect 9 0 10 0;
#X connect 10 0 6 0;
#X connect 11 0 9 0;
#X connect 12 0 10 1;
#X connect 13 0 19 0;
#X connect 14 0 20 0;
#X connect 15 0 16 0;
#X connect 16 0 7 0;
#X connect 17 0 15 0;
#X connect 18 0 16 1;
#X connect 21 0 2 0;
#X coords 0 -1 1 1 85 60 1 100 100;
