#N struct 1064-symarray float x array symbols 1064-sym;
#N struct 1064-sym symbol name float on;
#N canvas 57 107 931 998 10;
#X obj 430 -50 cnv 15 145 120 empty empty empty 20 12 0 14 -260097
-66577 0;
#X obj 36 151 textfile;
#X symbolatom 36 261 20 0 0 0 - - -;
#X msg 81 101 rewind;
#X obj 36 -81 openpanel;
#X obj 436 -43 bng 20 250 50 0 empty empty empty 17 7 0 10 -258113
-1 -1;
#X obj 286 443 m_symbolarray;
#X msg 361 423 \$1 \$2;
#X obj 361 281 f;
#X obj 391 281 + 1;
#X obj 361 403 pack f s;
#X symbolatom 286 522 10 0 0 0 - - -;
#X msg 648 151 dump;
#X msg 286 341 reset;
#X floatatom 361 551 10 0 0 0 - - -;
#X obj 361 469 bng 15 250 50 0 empty empty empty 17 7 0 10 -262144
-1 -1;
#X floatatom 601 291 5 0 0 0 - - -;
#X msg 380 469 0;
#X obj 36 211 drip;
#X obj 97 151 until;
#X obj 97 131 bng 15 250 50 0 empty empty empty 17 7 0 10 -262144 -1
-1;
#X obj 601 261 until;
#X obj 601 231 t f f;
#X obj 616 201 f;
#X msg 376 251 0;
#X obj 36 291 t b s;
#X obj 36 11 t b b b b b s;
#X obj 36 241 l2s;
#X obj 631 181 + 1;
#X msg 96 71 read /home/hellocatfood/Desktop/osp cr;
#X obj 601 91 t b b b b b;
#X obj 126 -9 print;
#X obj 126 -50 symbol;
#X msg 126 -30 Opened \$1;
#X text 462 -44 open file;
#X msg 111 41 set read \$1 cr;
#X obj 436 17 tgl 20 0 empty empty empty 17 7 0 10 -262144 -1 -1 0
1;
#X obj 286 543 outlet;
#X obj 437 190 f;
#X obj 473 189 + 1;
#X obj 437 212 %;
#X text 462 16 go;
#X text 536 46 speed;
#X obj 436 -13 bng 20 250 50 0 empty empty empty 17 7 0 10 -258113
-1 -1;
#X text 462 -14 next word;
#X obj 361 513 f;
#X obj 391 513 + 1;
#X obj 601 71 bang;
#X obj 598 33 s start;
#X obj 557 512 outlet index;
#X obj 361 652 outlet max;
#X obj 361 572 - 1;
#X obj 439 47 hsl 90 15 500 0 0 0 empty empty empty -2 -8 0 10 -4034
-1 -1 0 1;
#X msg 354 71 0;
#X obj 513 133 r reset;
#X obj 436 134 metro 500;
#X floatatom 493 31 6 0 0 0 - - -;
#X obj 595 -30 inlet;
#X connect 1 0 18 0;
#X connect 1 1 19 1;
#X connect 2 0 25 0;
#X connect 3 0 1 0;
#X connect 4 0 26 0;
#X connect 4 0 32 0;
#X connect 4 0 53 0;
#X connect 5 0 4 0;
#X connect 6 0 11 0;
#X connect 6 1 15 0;
#X connect 7 0 6 1;
#X connect 8 0 9 0;
#X connect 8 0 10 0;
#X connect 9 0 8 1;
#X connect 10 0 7 0;
#X connect 11 0 37 0;
#X connect 12 0 6 0;
#X connect 13 0 6 0;
#X connect 14 0 28 0;
#X connect 14 0 40 1;
#X connect 14 0 51 0;
#X connect 15 0 45 0;
#X connect 16 0 6 0;
#X connect 17 0 45 1;
#X connect 18 0 27 0;
#X connect 19 0 1 0;
#X connect 20 0 19 0;
#X connect 21 0 16 0;
#X connect 22 0 21 0;
#X connect 23 0 22 0;
#X connect 24 0 8 1;
#X connect 25 0 8 0;
#X connect 25 1 10 1;
#X connect 26 0 20 0;
#X connect 26 1 24 0;
#X connect 26 2 13 0;
#X connect 26 3 3 0;
#X connect 26 4 29 0;
#X connect 26 5 35 0;
#X connect 27 0 2 0;
#X connect 28 0 23 1;
#X connect 29 0 1 0;
#X connect 30 1 23 0;
#X connect 30 2 17 0;
#X connect 30 3 12 0;
#X connect 32 0 33 0;
#X connect 33 0 31 0;
#X connect 35 0 29 0;
#X connect 36 0 47 0;
#X connect 36 0 55 0;
#X connect 38 0 39 0;
#X connect 38 0 40 0;
#X connect 39 0 38 1;
#X connect 40 0 6 0;
#X connect 40 0 49 0;
#X connect 43 0 38 0;
#X connect 45 0 46 0;
#X connect 45 0 14 0;
#X connect 46 0 45 1;
#X connect 47 0 30 0;
#X connect 51 0 50 0;
#X connect 52 0 55 1;
#X connect 52 0 56 0;
#X connect 53 0 38 0;
#X connect 54 0 38 0;
#X connect 55 0 38 0;
#X connect 57 0 52 0;
#X coords 0 -1 1 1 145 120 1 430 -50;
