#N canvas 988 82 931 998 10;
#X declare -lib mrpeach;
#X obj 34 16 import mrpeach;
#X obj 33 90 unpackOSC;
#X obj 58 401 *~ 0.1;
#X obj 57 424 dac~;
#X obj 178 338 hsl 128 15 0 1 0 0 empty empty empty -2 -8 0 10 -262144
-1 -1 2500 1;
#X obj 51 142 routeOSC /x;
#X obj 58 374 *~;
#X obj 254 140 routeOSC /y;
#X obj 33 68 udpreceive 5001;
#X obj 51 182 selectWaveform;
#X obj 254 180 selectWaveform;
#N canvas 1085 574 450 300 wsel 0;
#X obj 120 120 cnv 15 70 35 empty empty empty 20 12 0 14 -261234 -66577
0;
#X obj 125 135 hradio 15 1 0 4 empty empty sine 0 -8 0 10 -262144 -1
-1 0;
#X msg 208 189 label sine;
#X msg 223 210 label saw;
#X msg 239 230 label square;
#X obj 125 165 outlet;
#X obj 125 85 inlet;
#X obj 208 69 loadbang;
#X msg 208 91 0;
#X obj 208 169 sel 0 1 2 3;
#X msg 255 250 label off;
#X connect 1 0 5 0;
#X connect 1 0 9 0;
#X connect 2 0 1 0;
#X connect 3 0 1 0;
#X connect 4 0 1 0;
#X connect 6 0 1 0;
#X connect 7 0 8 0;
#X connect 8 0 1 0;
#X connect 9 0 2 0;
#X connect 9 1 3 0;
#X connect 9 2 4 0;
#X connect 9 3 10 0;
#X connect 10 0 1 0;
#X coords 0 -1 1 1 70 35 1 120 120;
#X restore 132 142 pd wsel;
#N canvas 1085 574 450 300 wsel 0;
#X obj 120 120 cnv 15 70 35 empty empty empty 20 12 0 14 -261234 -66577
0;
#X obj 125 135 hradio 15 1 0 4 empty empty sine 0 -8 0 10 -262144 -1
-1 0;
#X msg 208 189 label sine;
#X msg 223 210 label saw;
#X msg 239 230 label square;
#X obj 125 165 outlet;
#X obj 125 85 inlet;
#X obj 208 69 loadbang;
#X msg 208 91 0;
#X obj 208 169 sel 0 1 2 3;
#X msg 255 250 label off;
#X connect 1 0 5 0;
#X connect 1 0 9 0;
#X connect 2 0 1 0;
#X connect 3 0 1 0;
#X connect 4 0 1 0;
#X connect 6 0 1 0;
#X connect 7 0 8 0;
#X connect 8 0 1 0;
#X connect 9 0 2 0;
#X connect 9 1 3 0;
#X connect 9 2 4 0;
#X connect 9 3 10 0;
#X connect 10 0 1 0;
#X coords 0 -1 1 1 70 35 1 120 120;
#X restore 335 140 pd wsel;
#X msg 404 280 \; pd dsp 1;
#X obj 404 260 loadbang;
#N canvas 992 597 450 300 record 0;
#X obj 140 118 f;
#X obj 173 118 + 1;
#X obj 71 18 sel 0 1;
#X obj 90 98 t b b;
#X msg 90 120 start;
#X msg 71 50 stop;
#X obj 71 -12 r start;
#X obj 21 168 r~ audio;
#X obj 71 198 writesf~ 2;
#X msg 140 138 open svg_wave_\$1.wav;
#X connect 0 0 1 0;
#X connect 0 0 9 0;
#X connect 1 0 0 1;
#X connect 2 0 5 0;
#X connect 2 1 3 0;
#X connect 3 0 4 0;
#X connect 3 1 0 0;
#X connect 4 0 8 0;
#X connect 5 0 8 0;
#X connect 6 0 2 0;
#X connect 7 0 8 0;
#X connect 7 0 8 1;
#X connect 9 0 8 0;
#X restore 238 525 pd record;
#X obj 10 123 print;
#X obj 456 140 routeOSC /start;
#X obj 456 162 change;
#X floatatom 455 184 5 0 0 0 - - -;
#X obj 494 219 s start;
#X obj 586 159 counter;
#X floatatom 586 181 5 0 0 0 - - -;
#X obj 107 424 s~ audio;
#X connect 1 0 5 0;
#X connect 1 0 7 0;
#X connect 1 0 16 0;
#X connect 1 0 17 0;
#X connect 2 0 3 0;
#X connect 2 0 3 1;
#X connect 2 0 23 0;
#X connect 4 0 2 1;
#X connect 5 0 9 0;
#X connect 6 0 2 0;
#X connect 7 0 10 0;
#X connect 8 0 1 0;
#X connect 9 0 6 0;
#X connect 10 0 6 1;
#X connect 11 0 9 1;
#X connect 12 0 10 1;
#X connect 14 0 13 0;
#X connect 17 0 18 0;
#X connect 18 0 19 0;
#X connect 18 0 21 0;
#X connect 19 0 20 0;
#X connect 21 0 22 0;
