#N canvas 1 90 821 810 10;
#X obj 69 516 *~;
#X obj 120 532 line~;
#X msg 122 502 \$1 10;
#X floatatom 106 134 5 0 0 2 gain - -;
#X obj 63 561 clip~ -0.5 0.5;
#X obj 69 481 inlet~;
#X obj 83 605 sig~ 150;
#X obj 66 690 outlet~;
#X obj 65 644 vcf~ 3;
#X floatatom 143 135 5 0 0 2 freq - -;
#X connect 0 0 4 0;
#X connect 1 0 0 1;
#X connect 2 0 1 0;
#X connect 3 0 2 0;
#X connect 4 0 8 0;
#X connect 5 0 0 0;
#X connect 6 0 8 1;
#X connect 8 0 7 0;
#X connect 9 0 6 0;
#X coords 0 -1 1 1 85 60 1 100 100;
