#N canvas 592 37 588 488 10;
#X obj 436 382 sfplay 2;
#X obj 38 385 sfrecord 2;
#X msg 436 200 help;
#X msg 436 226 open test.raw l;
#X msg 436 249 start;
#X msg 485 249 bang;
#X msg 525 249 1;
#X msg 436 272 stop;
#X msg 525 272 0;
#X msg 436 298 rewind;
#X msg 507 356 done;
#X obj 507 381 print;
#X msg 38 201 help;
#X msg 38 250 start;
#X msg 38 274 stop;
#X msg 38 298 close;
#X msg 38 226 open test.raw l;
#X msg 38 323 bang;
#X floatatom 38 411 0 0 0 0 - - -;
#X text 72 411 status (1-recording / 0-not_recording);
#X obj 45 361 osc~ 100;
#X obj 207 352 osc~ 578;
#X msg 436 347 close;
#X text 122 47 a little harddisk-recording system;
#X text 77 324 retrigger status-output;
#X text 261 224 <name> <endianity>;
#X text 205 226 open;
#X text 135 385 sfrecord/sfplay <num. of channels>;
#X text 53 77 this makes it possible to do multi-track recordings;
#X text 52 92 up to now \, the "sfrecord" only supports .RAW format
;
#X text 51 107 "sfplay" can skip any header \, if you know it's size::
just call "sfplay <num.of.chan> <skip.bytes>;
#X text 111 423 output amplitude;
#X text 435 37 part of zexy;
#X obj 128 196 savepanel;
#X obj 132 177 bng 15 250 50 0 empty empty empty 17 7 0 10 -262144
-1 -1;
#X msg 167 308 open /Users/P/Desktop/test2.raw l;
#X msg 162 280 set open \$1.raw l;
#X obj 435 114 openpanel;
#X msg 214 165 open /Volumes/SANS TITRE/fonts/_Edieresis.glyph l;
#X msg 419 144 set open \$1 l;
#X obj 442 88 bng 15 250 50 0 empty empty empty 17 7 0 10 -262144 -1
-1;
#X obj 385 408 dac~;
#X floatatom 87 303 5 0 0 0 - - -;
#X msg 436 321 goto 100;
#X connect 0 0 41 0;
#X connect 0 1 41 1;
#X connect 0 2 10 0;
#X connect 1 0 18 0;
#X connect 2 0 0 0;
#X connect 3 0 0 0;
#X connect 4 0 0 0;
#X connect 5 0 0 0;
#X connect 6 0 0 0;
#X connect 7 0 0 0;
#X connect 8 0 0 0;
#X connect 9 0 0 0;
#X connect 10 0 11 0;
#X connect 12 0 1 0;
#X connect 13 0 1 0;
#X connect 14 0 1 0;
#X connect 15 0 1 0;
#X connect 16 0 1 0;
#X connect 17 0 1 0;
#X connect 20 0 1 0;
#X connect 21 0 1 1;
#X connect 22 0 0 0;
#X connect 33 0 36 0;
#X connect 34 0 33 0;
#X connect 35 0 1 0;
#X connect 36 0 35 0;
#X connect 37 0 39 0;
#X connect 38 0 0 0;
#X connect 39 0 38 0;
#X connect 40 0 37 0;
#X connect 42 0 20 0;
#X connect 43 0 0 0;
