#N canvas 294 186 908 700 10;
#X obj 157 -12 osc~;
#X floatatom 113 -159 5 0 0 0 - - -;
#X floatatom 147 -47 5 0 0 0 - - -;
#X obj 117 -109 mtof;
#X obj 191 177 outlet~;
#X obj 180 -225 inlet;
#X obj 167 -166 spigot;
#X obj 248 -211 tgl 15 0 empty empty empty 17 7 0 10 -262144 -1 -1
0 1;
#X obj 207 -156 spigot;
#X obj 253 -170 select 0;
#X msg 260 -146 1;
#X msg 288 -143 0;
#X obj 242 -124 tgl 15 0 empty empty empty 17 7 0 10 -262144 -1 -1
0 1;
#X obj 279 -227 inlet;
#X obj 122 -212 / 1.3;
#X obj 286 2 line~;
#X obj 258 25 *~;
#X obj 256 50 *~;
#X obj 187 78 *~;
#X obj 336 -107 bng 15 250 50 0 empty empty empty 17 7 0 10 -262144
-1 -1;
#X msg 425 -34 0.3 \, 0 400;
#X msg 287 -36 0.4 \, 0.3 100;
#X msg 193 -36 0 \, 0.4 10;
#X obj 306 -66 pipe 10;
#X floatatom 457 -147 5 100 10000 0 - - -;
#X obj 395 -83 pipe 6000;
#X obj 196 134 lop~ 1000;
#X obj 262 181 throw~ audio;
#X connect 0 0 18 0;
#X connect 1 0 3 0;
#X connect 2 0 0 0;
#X connect 3 0 2 0;
#X connect 5 0 6 0;
#X connect 5 0 8 0;
#X connect 5 0 19 0;
#X connect 6 0 14 0;
#X connect 7 0 6 1;
#X connect 7 0 9 0;
#X connect 8 0 2 0;
#X connect 9 0 10 0;
#X connect 9 1 11 0;
#X connect 10 0 12 0;
#X connect 11 0 12 0;
#X connect 12 0 8 1;
#X connect 13 0 7 0;
#X connect 14 0 1 0;
#X connect 15 0 16 1;
#X connect 15 0 16 0;
#X connect 16 0 17 1;
#X connect 16 0 17 0;
#X connect 17 0 18 1;
#X connect 18 0 26 0;
#X connect 19 0 22 0;
#X connect 19 0 23 0;
#X connect 20 0 15 0;
#X connect 21 0 15 0;
#X connect 22 0 15 0;
#X connect 23 0 21 0;
#X connect 23 0 25 0;
#X connect 24 0 25 1;
#X connect 25 0 20 0;
#X connect 26 0 4 0;
#X connect 26 0 27 0;
