#N struct 1019-symarray float x array symbols 1019-sym;
#N struct 1019-sym symbol name float on;
#N canvas 973 107 931 998 10;
#N canvas 0 85 1920 995 reserch 0;
#X msg 1226 512 add2 \$1;
#X msg 1207 548 84 105 109;
#X msg 1310 486 set;
#X obj 1226 409 s2l;
#X msg 1241 387 symbol;
#X obj 1241 366 loadbang;
#X symbolatom 1207 316 40 0 0 0 - - -;
#X obj 1226 433 list-drip;
#X obj 1226 462 sel _;
#X obj 1253 487 asciify;
#X msg 1226 487 32;
#X obj 1207 340 t b s b;
#X msg 1207 790 add2 \$1;
#X msg 1188 826 102 108 111 97 116;
#X msg 1309 764 set;
#X obj 1207 687 s2l;
#X msg 1222 665 symbol;
#X obj 1222 644 loadbang;
#X symbolatom 1188 594 40 0 0 0 - - -;
#X obj 1207 711 list-drip;
#X obj 1207 740 sel _;
#X obj 1238 767 asciify;
#X msg 1207 765 32;
#X obj 1188 618 t b s b;
#X obj 1364 80 bng 15 250 50 0 empty empty empty 17 7 0 10 -262144
-1 -1;
#N canvas 405 85 931 994 readtext 0;
#X obj 46 171 textfile;
#X msg 91 121 rewind;
#X obj 46 -61 openpanel;
#X obj 107 171 until;
#X obj 107 151 bng 15 250 50 0 empty empty empty 17 7 0 10 -262144
-1 -1;
#X obj 46 31 t b b b b b s;
#X obj 46 291 l2s;
#X msg 106 91 read /home/hellocatfood/Desktop/testtext cr;
#X obj 136 11 print;
#X obj 136 -30 symbol;
#X msg 136 -10 Opened \$1;
#X msg 121 61 set read \$1 cr;
#X obj 46 406 outlet;
#X obj 110 -89 inlet;
#X obj 46 261 drip;
#X connect 0 0 14 0;
#X connect 0 1 3 1;
#X connect 1 0 0 0;
#X connect 2 0 5 0;
#X connect 2 0 9 0;
#X connect 3 0 0 0;
#X connect 4 0 3 0;
#X connect 5 0 4 0;
#X connect 5 3 1 0;
#X connect 5 4 7 0;
#X connect 5 5 11 0;
#X connect 6 0 12 0;
#X connect 7 0 0 0;
#X connect 9 0 10 0;
#X connect 10 0 8 0;
#X connect 11 0 7 0;
#X connect 13 0 2 0;
#X connect 14 0 6 0;
#X restore 1384 132 pd readtext;
#X connect 0 0 1 0;
#X connect 2 0 1 0;
#X connect 3 0 7 0;
#X connect 4 0 3 1;
#X connect 5 0 4 0;
#X connect 6 0 11 0;
#X connect 7 0 8 0;
#X connect 8 0 10 0;
#X connect 8 1 9 0;
#X connect 9 0 0 0;
#X connect 10 0 0 0;
#X connect 11 0 1 0;
#X connect 11 1 3 0;
#X connect 11 2 2 0;
#X connect 12 0 13 0;
#X connect 14 0 13 0;
#X connect 15 0 19 0;
#X connect 16 0 15 1;
#X connect 17 0 16 0;
#X connect 18 0 23 0;
#X connect 19 0 20 0;
#X connect 20 0 22 0;
#X connect 20 1 21 0;
#X connect 21 0 12 0;
#X connect 22 0 12 0;
#X connect 23 0 13 0;
#X connect 23 1 15 0;
#X connect 23 2 14 0;
#X connect 24 0 25 0;
#X connect 25 0 6 0;
#X restore 1639 366 pd reserch;
#X obj 1061 171 rawreader;
#X obj 1041 142 bng 15 250 50 0 empty empty empty 17 7 0 10 -262144
-1 -1;
#X symbolatom 75 214 20 0 0 0 - - -;
#X msg 94 403 add2 \$1;
#X msg 75 439 111 110 101;
#X msg 178 377 set;
#X msg 109 291 symbol;
#X obj 109 270 loadbang;
#X obj 94 353 sel _;
#X obj 121 378 asciify;
#X msg 94 378 32;
#X obj 75 244 t b s b;
#X obj 75 64 opentextfile;
#X obj 94 333 list-drip;
#X obj 75 469 unpack f f f f f f f f f f f f f;
#X floatatom 75 499 5 0 0 0 - - -;
#X obj 220 879 dac~;
#X obj 197 841 clip~ -1 1;
#X obj 199 783 catch~ audio;
#X text 210 65 open a plain text file;
#X text 209 214 or manually type a word;
#X floatatom 90 539 5 0 0 0 - - -;
#X floatatom 106 579 5 0 0 0 - - -;
#X floatatom 121 619 5 0 0 0 - - -;
#X floatatom 145 499 5 0 0 0 - - -;
#X floatatom 160 539 5 0 0 0 - - -;
#X floatatom 176 579 5 0 0 0 - - -;
#X floatatom 191 619 5 0 0 0 - - -;
#X floatatom 215 499 5 0 0 0 - - -;
#X floatatom 230 539 5 0 0 0 - - -;
#X floatatom 246 579 5 0 0 0 - - -;
#X floatatom 261 619 5 0 0 0 - - -;
#X floatatom 285 499 5 0 0 0 - - -;
#X obj 323 460 tgl 15 0 empty empty empty 17 7 0 10 -262144 -1 -1 1
1;
#X obj 483 66 cnv 15 100 60 empty empty empty 20 12 0 14 -228856 -66577
0;
#N canvas 57 82 450 300 gemwin 0;
#X obj 132 136 gemwin;
#X obj 67 89 outlet;
#X obj 67 10 inlet;
#X obj 67 41 route create;
#X msg 67 70 set destroy;
#X msg 142 68 set create;
#X msg 132 112 create \, 1;
#X msg 198 112 destroy;
#X obj 251 112 r pixelcolor;
#X connect 2 0 3 0;
#X connect 3 0 4 0;
#X connect 3 0 6 0;
#X connect 3 1 5 0;
#X connect 3 1 7 0;
#X connect 4 0 1 0;
#X connect 5 0 1 0;
#X connect 6 0 0 0;
#X connect 7 0 0 0;
#X connect 8 0 0 0;
#X restore 488 105 pd gemwin;
#X msg 488 86 destroy;
#X text 484 65 create window;
#X obj 485 233 gemhead;
#X obj 485 315 text3d;
#X msg 352 275 text \$1;
#X msg 528 260 font Reglo-Bold.ttf;
#X obj 534 221 loadbang;
#X obj 345 459 loadbang;
#X obj 285 519 simpleosc;
#X obj 145 519 simpleosc;
#X obj 75 519 simpleosc;
#X obj 90 559 simpleosc;
#X obj 106 599 simpleosc;
#X obj 121 639 simpleosc;
#X obj 160 559 simpleosc;
#X obj 176 599 simpleosc;
#X obj 191 639 simpleosc;
#X obj 215 519 simpleosc;
#X obj 230 559 simpleosc;
#X obj 246 599 simpleosc;
#X obj 261 639 simpleosc;
#X msg 486 379 \; pd dsp 1;
#X obj 486 359 loadbang;
#X obj 94 313 s2l;
#N canvas 700 776 450 300 record 0;
#X obj 140 118 f;
#X obj 173 118 + 1;
#X obj 71 18 sel 0 1;
#X obj 90 98 t b b;
#X msg 90 120 start;
#X msg 71 50 stop;
#X obj 71 -12 r start;
#X obj 71 198 writesf~ 2;
#X msg 140 138 open text_to_sound_\$1.wav;
#X obj 20 169 inlet~;
#X connect 0 0 1 0;
#X connect 0 0 8 0;
#X connect 1 0 0 1;
#X connect 2 0 5 0;
#X connect 2 1 3 0;
#X connect 3 0 4 0;
#X connect 3 1 0 0;
#X connect 4 0 7 0;
#X connect 5 0 7 0;
#X connect 6 0 2 0;
#X connect 8 0 7 0;
#X connect 9 0 7 0;
#X connect 9 0 7 1;
#X restore 208 845 pd record;
#X floatatom 211 182 5 0 0 0 - - -;
#X obj 286 141 counter;
#X floatatom 286 163 5 0 0 0 - - -;
#X floatatom 141 194 5 0 0 0 - - -;
#X obj 286 119 sel;
#X msg 351 157 0;
#X obj 351 179 s start;
#X connect 2 0 1 0;
#X connect 3 0 12 0;
#X connect 3 0 41 0;
#X connect 4 0 5 0;
#X connect 5 0 15 0;
#X connect 6 0 5 0;
#X connect 7 0 60 1;
#X connect 8 0 7 0;
#X connect 9 0 11 0;
#X connect 9 1 10 0;
#X connect 10 0 4 0;
#X connect 11 0 4 0;
#X connect 12 0 5 0;
#X connect 12 1 60 0;
#X connect 12 2 6 0;
#X connect 13 0 3 0;
#X connect 13 1 65 0;
#X connect 13 2 62 0;
#X connect 14 0 9 0;
#X connect 15 0 16 0;
#X connect 15 1 22 0;
#X connect 15 2 23 0;
#X connect 15 3 24 0;
#X connect 15 4 25 0;
#X connect 15 5 26 0;
#X connect 15 6 27 0;
#X connect 15 7 28 0;
#X connect 15 8 29 0;
#X connect 15 9 30 0;
#X connect 15 10 31 0;
#X connect 15 11 32 0;
#X connect 15 12 33 0;
#X connect 16 0 47 0;
#X connect 18 0 17 0;
#X connect 18 0 17 1;
#X connect 18 0 61 0;
#X connect 19 0 18 0;
#X connect 22 0 48 0;
#X connect 23 0 49 0;
#X connect 24 0 50 0;
#X connect 25 0 46 0;
#X connect 26 0 51 0;
#X connect 27 0 52 0;
#X connect 28 0 53 0;
#X connect 29 0 54 0;
#X connect 30 0 55 0;
#X connect 31 0 56 0;
#X connect 32 0 57 0;
#X connect 33 0 45 0;
#X connect 34 0 45 1;
#X connect 34 0 46 1;
#X connect 34 0 47 1;
#X connect 34 0 48 1;
#X connect 34 0 49 1;
#X connect 34 0 50 1;
#X connect 34 0 51 1;
#X connect 34 0 52 1;
#X connect 34 0 53 1;
#X connect 34 0 54 1;
#X connect 34 0 55 1;
#X connect 34 0 56 1;
#X connect 34 0 57 1;
#X connect 36 0 37 0;
#X connect 37 0 36 0;
#X connect 39 0 40 0;
#X connect 41 0 40 0;
#X connect 42 0 40 0;
#X connect 43 0 42 0;
#X connect 44 0 34 0;
#X connect 59 0 58 0;
#X connect 60 0 14 0;
#X connect 62 0 66 0;
#X connect 63 0 64 0;
#X connect 65 0 66 1;
#X connect 66 0 63 0;
#X connect 66 0 67 0;
#X connect 67 0 68 0;
