#N struct 1019-symarray float x array symbols 1019-sym;
#N struct 1019-sym symbol name float on;
#N canvas 964 92 931 998 10;
#N canvas 0 85 1920 995 reserch 0;
#X msg 1226 512 add2 \$1;
#X msg 1207 548 84 105 109;
#X msg 1310 486 set;
#X obj 1226 409 s2l;
#X msg 1241 387 symbol;
#X obj 1241 366 loadbang;
#X symbolatom 1207 316 40 0 0 0 - - -;
#X obj 1226 433 list-drip;
#X obj 1226 462 sel _;
#X obj 1253 487 asciify;
#X msg 1226 487 32;
#X obj 1207 340 t b s b;
#X msg 1207 790 add2 \$1;
#X msg 1188 826 102 108 111 97 116;
#X msg 1309 764 set;
#X obj 1207 687 s2l;
#X msg 1222 665 symbol;
#X obj 1222 644 loadbang;
#X symbolatom 1188 594 40 0 0 0 - - -;
#X obj 1207 711 list-drip;
#X obj 1207 740 sel _;
#X obj 1238 767 asciify;
#X msg 1207 765 32;
#X obj 1188 618 t b s b;
#X obj 1364 80 bng 15 250 50 0 empty empty empty 17 7 0 10 -262144
-1 -1;
#N canvas 405 85 931 994 readtext 0;
#X obj 46 171 textfile;
#X msg 91 121 rewind;
#X obj 46 -61 openpanel;
#X obj 107 171 until;
#X obj 107 151 bng 15 250 50 0 empty empty empty 17 7 0 10 -262144
-1 -1;
#X obj 46 31 t b b b b b s;
#X obj 46 291 l2s;
#X msg 106 91 read /home/hellocatfood/Desktop/testtext cr;
#X obj 136 11 print;
#X obj 136 -30 symbol;
#X msg 136 -10 Opened \$1;
#X msg 121 61 set read \$1 cr;
#X obj 46 406 outlet;
#X obj 110 -89 inlet;
#X obj 46 261 drip;
#X connect 0 0 14 0;
#X connect 0 1 3 1;
#X connect 1 0 0 0;
#X connect 2 0 5 0;
#X connect 2 0 9 0;
#X connect 3 0 0 0;
#X connect 4 0 3 0;
#X connect 5 0 4 0;
#X connect 5 3 1 0;
#X connect 5 4 7 0;
#X connect 5 5 11 0;
#X connect 6 0 12 0;
#X connect 7 0 0 0;
#X connect 9 0 10 0;
#X connect 10 0 8 0;
#X connect 11 0 7 0;
#X connect 13 0 2 0;
#X connect 14 0 6 0;
#X restore 1384 132 pd readtext;
#X connect 0 0 1 0;
#X connect 2 0 1 0;
#X connect 3 0 7 0;
#X connect 4 0 3 1;
#X connect 5 0 4 0;
#X connect 6 0 11 0;
#X connect 7 0 8 0;
#X connect 8 0 10 0;
#X connect 8 1 9 0;
#X connect 9 0 0 0;
#X connect 10 0 0 0;
#X connect 11 0 1 0;
#X connect 11 1 3 0;
#X connect 11 2 2 0;
#X connect 12 0 13 0;
#X connect 14 0 13 0;
#X connect 15 0 19 0;
#X connect 16 0 15 1;
#X connect 17 0 16 0;
#X connect 18 0 23 0;
#X connect 19 0 20 0;
#X connect 20 0 22 0;
#X connect 20 1 21 0;
#X connect 21 0 12 0;
#X connect 22 0 12 0;
#X connect 23 0 13 0;
#X connect 23 1 15 0;
#X connect 23 2 14 0;
#X connect 24 0 25 0;
#X connect 25 0 6 0;
#X restore 1639 366 pd reserch;
#X obj 1061 171 rawreader;
#X obj 1041 142 bng 15 250 50 0 empty empty empty 17 7 0 10 -262144
-1 -1;
#X symbolatom 75 214 20 0 0 0 - - -;
#X msg 94 403 add2 \$1;
#X msg 75 439 65;
#X msg 178 377 set;
#X msg 109 291 symbol;
#X obj 109 270 loadbang;
#X obj 94 353 sel _;
#X obj 121 378 asciify;
#X msg 94 378 32;
#X obj 75 244 t b s b;
#X obj 75 -16 opentextfile;
#X obj 94 333 list-drip;
#X obj 75 469 unpack f f f f f f f f f f f f f;
#X floatatom 75 559 5 0 0 0 - - -;
#X obj 610 879 dac~;
#X obj 587 841 clip~ -1 1;
#X obj 589 783 catch~ audio;
#X text 210 -15 open a plain text file;
#X text 209 214 or manually type a word;
#X floatatom 90 669 5 0 0 0 - - -;
#X floatatom 106 789 5 0 0 0 - - -;
#X floatatom 121 889 5 0 0 0 - - -;
#X floatatom 145 559 5 0 0 0 - - -;
#X floatatom 160 669 5 0 0 0 - - -;
#X floatatom 176 789 5 0 0 0 - - -;
#X floatatom 191 889 5 0 0 0 - - -;
#X floatatom 215 559 5 0 0 0 - - -;
#X floatatom 230 669 5 0 0 0 - - -;
#X floatatom 246 789 5 0 0 0 - - -;
#X floatatom 261 889 5 0 0 0 - - -;
#X floatatom 285 559 5 0 0 0 - - -;
#X obj 323 520 tgl 15 0 empty empty empty 17 7 0 10 -262144 -1 -1 1
1;
#X obj 485 233 gemhead;
#X msg 352 275 text \$1;
#X obj 534 221 loadbang;
#X obj 345 519 loadbang;
#X obj 285 579 simpleosc;
#X obj 145 579 simpleosc;
#X obj 75 579 simpleosc;
#X obj 90 689 simpleosc;
#X obj 106 809 simpleosc;
#X obj 121 909 simpleosc;
#X obj 160 689 simpleosc;
#X obj 176 809 simpleosc;
#X obj 191 909 simpleosc;
#X obj 215 579 simpleosc;
#X obj 230 689 simpleosc;
#X obj 246 809 simpleosc;
#X obj 261 909 simpleosc;
#X msg 486 379 \; pd dsp 1;
#X obj 486 359 loadbang;
#X obj 94 313 s2l;
#N canvas 700 776 450 300 record 0;
#X obj 140 118 f;
#X obj 173 118 + 1;
#X obj 71 18 sel 0 1;
#X obj 90 98 t b b;
#X msg 90 120 start;
#X msg 71 50 stop;
#X obj 71 -12 r start;
#X obj 71 198 writesf~ 2;
#X msg 140 138 open text_to_sound_\$1.wav;
#X obj 20 169 inlet~;
#X connect 0 0 1 0;
#X connect 0 0 8 0;
#X connect 1 0 0 1;
#X connect 2 0 5 0;
#X connect 2 1 3 0;
#X connect 3 0 4 0;
#X connect 3 1 0 0;
#X connect 4 0 7 0;
#X connect 5 0 7 0;
#X connect 6 0 2 0;
#X connect 8 0 7 0;
#X connect 9 0 7 0;
#X connect 9 0 7 1;
#X restore 676 883 pd record;
#X floatatom 193 124 5 0 0 0 - - -;
#X floatatom 134 124 5 0 0 0 - - -;
#X obj 134 144 sel;
#X msg 134 164 0;
#X obj 134 186 s start;
#X obj 485 315 text2d;
#X msg 528 260 font UmePlumePMincho-330.otf;
#X floatatom 561 290 5 0 0 0 - - -;
#X msg 647 52 color 0.1 0.21 0.31;
#X obj 647 32 loadbang;
#X msg 471 8 dimen 1024 768 \, create \, 1;
#X obj 471 70 gemwin;
#X msg 645 7 dimen 1024 768 \, offset 1920 0 \, border 0 \, create
\, 1;
#X msg 554 68 0 \, destroy;
#X obj 75 539 * 1;
#X obj 145 539 * 1;
#X obj 215 539 * 1;
#X obj 285 539 * 1;
#X obj 90 649 * 1;
#X obj 160 649 * 1;
#X obj 230 649 * 1;
#X obj 106 769 * 1;
#X obj 176 769 * 1;
#X obj 246 769 * 1;
#X obj 121 869 * 1;
#X obj 191 869 * 1;
#X obj 261 869 * 1;
#X obj 507 542 hsl 128 15 0.01 1.5 0 0 empty empty empty -2 -8 0 10
-262144 -1 -1 0 1;
#X floatatom 504 562 5 0 0 0 - - -;
#X msg 504 514 1;
#X text 186 185 starts recording;
#X obj 350 167 hid;
#X connect 2 0 1 0;
#X connect 3 0 12 0;
#X connect 3 0 36 0;
#X connect 4 0 5 0;
#X connect 5 0 15 0;
#X connect 6 0 5 0;
#X connect 7 0 54 1;
#X connect 8 0 7 0;
#X connect 9 0 11 0;
#X connect 9 1 10 0;
#X connect 10 0 4 0;
#X connect 11 0 4 0;
#X connect 12 0 5 0;
#X connect 12 1 54 0;
#X connect 12 2 6 0;
#X connect 13 0 3 0;
#X connect 13 1 57 0;
#X connect 13 2 56 0;
#X connect 14 0 9 0;
#X connect 15 0 70 0;
#X connect 15 1 71 0;
#X connect 15 2 72 0;
#X connect 15 3 73 0;
#X connect 15 4 74 0;
#X connect 15 5 75 0;
#X connect 15 6 76 0;
#X connect 15 7 77 0;
#X connect 15 8 78 0;
#X connect 15 9 79 0;
#X connect 15 10 80 0;
#X connect 15 11 81 0;
#X connect 15 12 82 0;
#X connect 16 0 41 0;
#X connect 18 0 17 0;
#X connect 18 0 17 1;
#X connect 18 0 55 0;
#X connect 19 0 18 0;
#X connect 22 0 42 0;
#X connect 23 0 43 0;
#X connect 24 0 44 0;
#X connect 25 0 40 0;
#X connect 26 0 45 0;
#X connect 27 0 46 0;
#X connect 28 0 47 0;
#X connect 29 0 48 0;
#X connect 30 0 49 0;
#X connect 31 0 50 0;
#X connect 32 0 51 0;
#X connect 33 0 39 0;
#X connect 34 0 39 1;
#X connect 34 0 40 1;
#X connect 34 0 41 1;
#X connect 34 0 42 1;
#X connect 34 0 43 1;
#X connect 34 0 44 1;
#X connect 34 0 45 1;
#X connect 34 0 46 1;
#X connect 34 0 47 1;
#X connect 34 0 48 1;
#X connect 34 0 49 1;
#X connect 34 0 50 1;
#X connect 34 0 51 1;
#X connect 35 0 61 0;
#X connect 36 0 61 0;
#X connect 37 0 62 0;
#X connect 38 0 34 0;
#X connect 53 0 52 0;
#X connect 54 0 14 0;
#X connect 56 0 58 0;
#X connect 57 0 58 1;
#X connect 58 0 59 0;
#X connect 59 0 60 0;
#X connect 62 0 61 0;
#X connect 63 0 61 1;
#X connect 64 0 67 0;
#X connect 65 0 64 0;
#X connect 66 0 67 0;
#X connect 68 0 67 0;
#X connect 69 0 67 0;
#X connect 70 0 16 0;
#X connect 71 0 25 0;
#X connect 72 0 29 0;
#X connect 73 0 33 0;
#X connect 74 0 22 0;
#X connect 75 0 26 0;
#X connect 76 0 30 0;
#X connect 77 0 23 0;
#X connect 78 0 27 0;
#X connect 79 0 31 0;
#X connect 80 0 24 0;
#X connect 81 0 28 0;
#X connect 82 0 32 0;
#X connect 83 0 84 0;
#X connect 84 0 70 1;
#X connect 84 0 71 1;
#X connect 84 0 72 1;
#X connect 84 0 73 1;
#X connect 84 0 74 1;
#X connect 84 0 75 1;
#X connect 84 0 76 1;
#X connect 84 0 77 1;
#X connect 84 0 78 1;
#X connect 84 0 79 1;
#X connect 84 0 80 1;
#X connect 84 0 81 1;
#X connect 84 0 82 1;
#X connect 85 0 83 0;
