#N struct 1019-symarray float x array symbols 1019-sym;
#N struct 1019-sym symbol name float on;
#N canvas 894 95 931 994 12;
#N canvas 0 85 1920 995 reserch 0;
#X msg 1226 512 add2 \$1;
#X msg 1207 548 84 105 109;
#X msg 1310 486 set;
#X obj 1226 409 s2l;
#X msg 1241 387 symbol;
#X obj 1241 366 loadbang;
#X symbolatom 1207 316 40 0 0 0 - - -;
#X obj 1226 433 list-drip;
#X obj 1226 462 sel _;
#X obj 1253 487 asciify;
#X msg 1226 487 32;
#X obj 1207 340 t b s b;
#X msg 1207 790 add2 \$1;
#X msg 1188 826 102 108 111 97 116;
#X msg 1309 764 set;
#X obj 1207 687 s2l;
#X msg 1222 665 symbol;
#X obj 1222 644 loadbang;
#X symbolatom 1188 594 40 0 0 0 - - -;
#X obj 1207 711 list-drip;
#X obj 1207 740 sel _;
#X obj 1238 767 asciify;
#X msg 1207 765 32;
#X obj 1188 618 t b s b;
#X obj 1364 80 bng 15 250 50 0 empty empty empty 17 7 0 10 -262144
-1 -1;
#N canvas 405 85 931 994 readtext 0;
#X obj 46 171 textfile;
#X msg 91 121 rewind;
#X obj 46 -61 openpanel;
#X obj 107 171 until;
#X obj 107 151 bng 15 250 50 0 empty empty empty 17 7 0 10 -262144
-1 -1;
#X obj 46 31 t b b b b b s;
#X obj 46 291 l2s;
#X msg 106 91 read /home/hellocatfood/Desktop/testtext cr;
#X obj 136 11 print;
#X obj 136 -30 symbol;
#X msg 136 -10 Opened \$1;
#X msg 121 61 set read \$1 cr;
#X obj 46 406 outlet;
#X obj 110 -89 inlet;
#X obj 46 261 drip;
#X connect 0 0 14 0;
#X connect 0 1 3 1;
#X connect 1 0 0 0;
#X connect 2 0 5 0;
#X connect 2 0 9 0;
#X connect 3 0 0 0;
#X connect 4 0 3 0;
#X connect 5 0 4 0;
#X connect 5 3 1 0;
#X connect 5 4 7 0;
#X connect 5 5 11 0;
#X connect 6 0 12 0;
#X connect 7 0 0 0;
#X connect 9 0 10 0;
#X connect 10 0 8 0;
#X connect 11 0 7 0;
#X connect 13 0 2 0;
#X connect 14 0 6 0;
#X restore 1384 132 pd readtext;
#X connect 0 0 1 0;
#X connect 2 0 1 0;
#X connect 3 0 7 0;
#X connect 4 0 3 1;
#X connect 5 0 4 0;
#X connect 6 0 11 0;
#X connect 7 0 8 0;
#X connect 8 0 10 0;
#X connect 8 1 9 0;
#X connect 9 0 0 0;
#X connect 10 0 0 0;
#X connect 11 0 1 0;
#X connect 11 1 3 0;
#X connect 11 2 2 0;
#X connect 12 0 13 0;
#X connect 14 0 13 0;
#X connect 15 0 19 0;
#X connect 16 0 15 1;
#X connect 17 0 16 0;
#X connect 18 0 23 0;
#X connect 19 0 20 0;
#X connect 20 0 22 0;
#X connect 20 1 21 0;
#X connect 21 0 12 0;
#X connect 22 0 12 0;
#X connect 23 0 13 0;
#X connect 23 1 15 0;
#X connect 23 2 14 0;
#X connect 24 0 25 0;
#X connect 25 0 6 0;
#X restore 1639 366 pd reserch;
#X obj 1061 171 rawreader;
#X obj 1041 142 bng 15 250 50 0 empty empty empty 17 7 0 10 -262144
-1 -1;
#X symbolatom 275 94 20 0 0 0 - - -;
#X msg 294 296 add2 \$1;
#X msg 275 332 116 111;
#X msg 378 270 set;
#X obj 294 193 s2l;
#X msg 309 171 symbol;
#X obj 309 150 loadbang;
#X obj 294 246 sel _;
#X obj 321 271 asciify;
#X msg 294 271 32;
#X obj 275 124 t b s b;
#X obj 75 64 opentextfile;
#X obj 423 220 list-drip;
#X obj 465 383 unpack f f f f f f f f f f f f f;
#X floatatom 457 446 5 0 0 0 - - -;
#X obj 220 879 dac~;
#X floatatom 468 473 5 0 0 0 - - -;
#X floatatom 492 498 5 0 0 0 - - -;
#X floatatom 538 451 5 0 0 0 - - -;
#X floatatom 575 504 5 0 0 0 - - -;
#X floatatom 514 526 5 0 0 0 - - -;
#X floatatom 559 479 5 0 0 0 - - -;
#X floatatom 593 426 5 0 0 0 - - -;
#X floatatom 614 464 5 0 0 0 - - -;
#X floatatom 633 495 5 0 0 0 - - -;
#X floatatom 655 424 5 0 0 0 - - -;
#X floatatom 681 459 5 0 0 0 - - -;
#X floatatom 698 488 5 0 0 0 - - -;
#X obj 227 619 simpleosc;
#X obj 284 559 tgl 15 0 empty empty empty 17 7 0 10 -262144 -1 -1 1
1;
#X obj 197 841 clip~ -1 1;
#X obj 292 838 clip~ -1 1;
#X obj 257 649 simpleosc;
#X obj 287 679 simpleosc;
#X obj 317 709 simpleosc;
#X obj 437 619 simpleosc;
#X obj 467 649 simpleosc;
#X obj 497 679 simpleosc;
#X obj 587 619 simpleosc;
#X obj 617 649 simpleosc;
#X obj 647 679 simpleosc;
#X obj 727 619 simpleosc;
#X obj 757 649 simpleosc;
#X obj 787 679 simpleosc;
#X obj 199 783 catch~ audio;
#X connect 2 0 1 0;
#X connect 3 0 13 0;
#X connect 4 0 5 0;
#X connect 5 0 16 0;
#X connect 6 0 5 0;
#X connect 7 0 15 0;
#X connect 8 0 7 1;
#X connect 9 0 8 0;
#X connect 10 0 12 0;
#X connect 10 1 11 0;
#X connect 11 0 4 0;
#X connect 12 0 4 0;
#X connect 13 0 5 0;
#X connect 13 1 7 0;
#X connect 13 2 6 0;
#X connect 14 0 3 0;
#X connect 15 0 10 0;
#X connect 16 0 17 0;
#X connect 16 1 19 0;
#X connect 16 2 20 0;
#X connect 16 3 23 0;
#X connect 16 4 21 0;
#X connect 16 5 24 0;
#X connect 16 6 22 0;
#X connect 16 7 25 0;
#X connect 16 8 26 0;
#X connect 16 9 27 0;
#X connect 16 10 28 0;
#X connect 16 11 29 0;
#X connect 16 12 30 0;
#X connect 17 0 31 0;
#X connect 19 0 35 0;
#X connect 20 0 36 0;
#X connect 21 0 38 0;
#X connect 22 0 40 0;
#X connect 23 0 37 0;
#X connect 24 0 39 0;
#X connect 25 0 41 0;
#X connect 26 0 42 0;
#X connect 27 0 43 0;
#X connect 28 0 44 0;
#X connect 29 0 45 0;
#X connect 30 0 46 0;
#X connect 32 0 31 1;
#X connect 32 0 35 1;
#X connect 32 0 36 1;
#X connect 32 0 37 1;
#X connect 32 0 38 1;
#X connect 32 0 39 1;
#X connect 32 0 40 1;
#X connect 32 0 41 1;
#X connect 32 0 42 1;
#X connect 32 0 43 1;
#X connect 32 0 44 1;
#X connect 32 0 45 1;
#X connect 32 0 46 1;
#X connect 33 0 18 0;
#X connect 34 0 18 1;
#X connect 47 0 33 0;
#X connect 47 0 34 0;
